<?xml version="1.0" encoding="utf-8"?>
<!-- Generator: Adobe Illustrator 16.0.0, SVG Export Plug-In . SVG Version: 6.00 Build 0)  -->
<!DOCTYPE svg PUBLIC "-//W3C//DTD SVG 1.1//EN" "http://www.w3.org/Graphics/SVG/1.1/DTD/svg11.dtd">
<svg version="1.1" id="Layer_1" xmlns="http://www.w3.org/2000/svg" xmlns:xlink="http://www.w3.org/1999/xlink" x="0px" y="0px"
	 width="136.833px" height="136.834px" viewBox="0 0 136.833 136.834" enable-background="new 0 0 136.833 136.834"
	 xml:space="preserve">
<g>
	<g>
		<circle fill="#42526C" cx="68.417" cy="68.416" r="63.333"/>
	</g>
	<g>
		
			<rect x="99.663" y="104.669" transform="matrix(-0.7427 0.6696 -0.6696 -0.7427 253.2716 118.3031)" fill="#F2DE62" width="8.488" height="6.286"/>
		<polygon fill="#F0DF8E" points="104.971,108.121 102.804,113.054 68.961,118.459 64.344,90.171 63.677,86.083 104.668,79.539 
			105.334,83.626 109.204,107.324 		"/>
		<polygon display="none" fill="#E5E65D" points="105.433,83.61 64.442,90.156 63.677,86.083 104.668,79.539 		"/>
		<g>
			
				<rect x="69.057" y="89.767" transform="matrix(-0.9875 0.1577 -0.1577 -0.9875 183.7567 167.0039)" fill="#988534" width="32.392" height="2.051"/>
			
				<rect x="69.981" y="94.823" transform="matrix(-0.9875 0.1577 -0.1577 -0.9875 186.3914 176.9046)" fill="#988534" width="32.393" height="2.049"/>
			
				<rect x="70.829" y="100.199" transform="matrix(-0.9875 0.1577 -0.1577 -0.9875 188.9266 187.4536)" fill="#988534" width="32.393" height="2.049"/>
			
				<rect x="71.764" y="106.548" transform="matrix(-0.9875 0.1578 -0.1578 -0.9875 177.346 201.0685)" fill="#988534" width="17.856" height="2.051"/>
		</g>
	</g>
	<g>
		
			<rect x="48.421" y="77.47" transform="matrix(-0.804 0.5946 -0.5946 -0.804 142.9417 114.1168)" fill="#F2DE62" width="8.49" height="6.287"/>
		<polygon fill="#F0DF8E" points="53.69,81.026 51.057,85.728 16.85,87.828 14.726,55.094 56.158,52.548 57.98,80.642 		"/>
		<polygon display="none" fill="#E5E65D" points="56.525,56.675 15.093,59.221 14.726,55.093 56.158,52.548 		"/>
		<g>
			
				<rect x="19.553" y="60.836" transform="matrix(-0.9981 0.0614 -0.0614 -0.9981 75.2284 121.411)" fill="#988534" width="32.391" height="2.05"/>
			
				<rect x="19.982" y="65.959" transform="matrix(-0.9981 0.0614 -0.0614 -0.9981 76.3976 131.6196)" fill="#988534" width="32.39" height="2.049"/>
			
				<rect x="20.305" y="71.392" transform="matrix(-0.9981 0.0614 -0.0614 -0.9981 77.3764 142.4549)" fill="#988534" width="32.391" height="2.049"/>
			
				<rect x="20.648" y="77.102" transform="matrix(-0.9981 0.0614 -0.0614 -0.9981 63.8929 154.2901)" fill="#988534" width="17.859" height="2.049"/>
		</g>
	</g>
	<g>
		
			<rect x="97.3" y="50.328" transform="matrix(-0.8681 0.4964 -0.4964 -0.8681 216.2378 49.4831)" fill="#F2DE62" width="8.489" height="6.287"/>
		<polygon fill="#F0DF8E" points="102.513,53.996 99.346,58.355 65.13,56.437 66.852,23.68 108.297,26.002 106.818,54.117 		"/>
		<polygon display="none" fill="#E5E65D" points="108.179,30.144 66.734,27.821 66.852,23.679 108.297,26.002 		"/>
		<g>
			
				<rect x="70.736" y="31.837" transform="matrix(-0.9984 -0.0559 0.0559 -0.9984 171.8895 70.5315)" fill="#988534" width="32.39" height="2.05"/>
			
				<rect x="70.567" y="36.973" transform="matrix(-0.9984 -0.0559 0.0559 -0.9984 171.2648 80.7836)" fill="#988534" width="32.39" height="2.048"/>
			
				<rect x="70.251" y="42.406" transform="matrix(-0.9984 -0.0559 0.0559 -0.9984 170.3298 91.6254)" fill="#988534" width="32.391" height="2.05"/>
			
				<rect x="69.968" y="47.271" transform="matrix(-0.9984 -0.0559 0.0559 -0.9984 154.9687 100.9282)" fill="#988534" width="17.856" height="2.05"/>
		</g>
	</g>
</g>
</svg>
