<?xml version="1.0" encoding="utf-8"?>
<!-- Generator: Adobe Illustrator 16.0.0, SVG Export Plug-In . SVG Version: 6.00 Build 0)  -->
<!DOCTYPE svg PUBLIC "-//W3C//DTD SVG 1.1//EN" "http://www.w3.org/Graphics/SVG/1.1/DTD/svg11.dtd">
<svg version="1.1" id="Layer_1" xmlns="http://www.w3.org/2000/svg" xmlns:xlink="http://www.w3.org/1999/xlink" x="0px" y="0px"
	 width="136.914px" height="136.914px" viewBox="0 0 136.914 136.914" enable-background="new 0 0 136.914 136.914"
	 xml:space="preserve">
<g>
	<g>
		<g>
			<g>
				<g>
					<circle fill="#42526C" cx="68.457" cy="68.458" r="63.333"/>
				</g>
			</g>
		</g>
	</g>
	<g>
		<g>
			<g>
				<path fill="#F2F2F2" d="M115.659,47.202c0-5.997-4.862-10.859-10.86-10.859H31.947c-5.997,0-10.859,4.862-10.859,10.859v45.175
					c0,5.996,4.862,10.859,10.859,10.859h72.852c5.998,0,10.86-4.863,10.86-10.859V47.202z"/>
			</g>
			<g>
				<g>
					<g>
						<path fill="#D1D3D3" d="M115.587,45.992c-0.603-5.427-5.2-9.649-10.789-9.649H31.947c-5.997,0-10.859,4.862-10.859,10.859
							v2.196h94.5L115.587,45.992L115.587,45.992z"/>
					</g>
				</g>
				<g>
					<circle fill="#E84849" cx="29.753" cy="42.672" r="2.375"/>
				</g>
				<g>
					<circle fill="#EFC849" cx="38.753" cy="42.672" r="2.375"/>
				</g>
				<g>
					<circle fill="#37B34C" cx="47.753" cy="42.672" r="2.375"/>
				</g>
			</g>
		</g>
	</g>
	<line fill="none" stroke="#969696" stroke-width="2" stroke-miterlimit="10" x1="27.378" y1="59.707" x2="108.707" y2="59.707"/>
	<line fill="none" stroke="#969696" stroke-width="2" stroke-miterlimit="10" x1="27.378" y1="65.707" x2="108.707" y2="65.707"/>
	<line fill="none" stroke="#969696" stroke-width="2" stroke-miterlimit="10" x1="27.378" y1="71.707" x2="108.707" y2="71.707"/>
	<line fill="none" stroke="#969696" stroke-width="2" stroke-miterlimit="10" x1="27.378" y1="77.707" x2="108.707" y2="77.707"/>
	<line fill="none" stroke="#969696" stroke-width="2" stroke-miterlimit="10" x1="27.378" y1="83.457" x2="108.707" y2="83.457"/>
	<line fill="none" stroke="#969696" stroke-width="2" stroke-miterlimit="10" x1="27.378" y1="89.457" x2="68.457" y2="89.457"/>
</g>
</svg>
