<?xml version="1.0" encoding="utf-8"?>
<!-- Generator: Adobe Illustrator 16.0.0, SVG Export Plug-In . SVG Version: 6.00 Build 0)  -->
<!DOCTYPE svg PUBLIC "-//W3C//DTD SVG 1.1//EN" "http://www.w3.org/Graphics/SVG/1.1/DTD/svg11.dtd">
<svg version="1.1" id="Layer_1" xmlns="http://www.w3.org/2000/svg" xmlns:xlink="http://www.w3.org/1999/xlink" x="0px" y="0px"
	 width="136.833px" height="136.834px" viewBox="0 0 136.833 136.834" enable-background="new 0 0 136.833 136.834"
	 xml:space="preserve">
<g>
	<g>
		<circle fill="#42526C" cx="69" cy="70.692" r="63.054"/>
	</g>
	<g>
		<g>
			<g>
				<g>
					<path fill="#DFCC6B" d="M92.93,54.144c-7.438-0.811-9.064,1.691-15.877-0.717c-4.534-1.604-0.865-14.409-11.4-15.72
						c-16.378-2.038-27.989,6.454-32.054,24.397c-4.783,21.115,8.64,42.149,29.979,46.984c21.34,4.834,42.518-8.358,47.299-29.478
						C114.196,64.97,107.023,55.676,92.93,54.144z M59.995,58.306c-1.358,3.301-5.485,4.731-9.216,3.193
						c-3.731-1.537-5.653-5.457-4.294-8.76c1.359-3.298,5.486-4.729,9.217-3.191C59.434,51.085,61.356,55.006,59.995,58.306z"/>
				</g>
			</g>
			<g>
				<g>
					<g>
						<path fill="#EEDD7A" d="M92.079,53.007c-7.439-0.809-9.066,1.691-15.877-0.717c-4.535-1.603-0.865-14.408-11.402-15.719
							c-16.378-2.038-27.988,6.453-32.053,24.398c-4.784,21.113,8.639,42.148,29.979,46.983c21.34,4.834,42.519-8.361,47.301-29.477
							C113.345,63.835,106.17,54.538,92.079,53.007z M59.143,57.17c-1.358,3.299-5.485,4.729-9.216,3.193
							c-3.731-1.536-5.653-5.459-4.293-8.761c1.359-3.299,5.485-4.729,9.216-3.191C58.582,49.948,60.504,53.87,59.143,57.17z"/>
					</g>
				</g>
				<g>
					<g>
						<path fill="#DBC55E" d="M54.85,48.411c-3.73-1.537-7.856-0.107-9.216,3.191c-1.36,3.302,0.562,7.225,4.293,8.761
							c3.73,1.536,7.857,0.105,9.216-3.193C60.504,53.87,58.582,49.948,54.85,48.411z M57.836,56.633
							c-1.096,2.659-4.424,3.813-7.434,2.573c-3.007-1.238-4.558-4.4-3.461-7.062c1.097-2.662,4.424-3.815,7.432-2.577
							C57.383,50.809,58.932,53.971,57.836,56.633z"/>
					</g>
				</g>
			</g>
			<g>
				<g>
					<g>
						<path fill="#DBC55E" d="M55.702,49.548c-3.73-1.538-7.857-0.106-9.217,3.191c-1.359,3.303,0.563,7.223,4.294,8.76
							c3.73,1.538,7.857,0.107,9.216-3.193C61.356,55.006,59.434,51.085,55.702,49.548z M58.688,57.766
							c-1.096,2.661-4.423,3.815-7.433,2.577c-3.008-1.239-4.558-4.402-3.461-7.062c1.097-2.662,4.423-3.816,7.431-2.576
							C58.234,51.942,59.783,55.106,58.688,57.766z"/>
					</g>
				</g>
			</g>
			<g>
				<g>
					<path fill="#F1E089" d="M76.202,52.29c-4.535-1.603,0.572-13.123-11.402-15.719c-16.13-3.498-27.988,6.453-32.053,24.398
						c-4.093,18.066,5.144,36.072,21.261,43.923C56.729,106.218,83.012,54.698,76.202,52.29z M59.143,57.17
						c-1.358,3.299-5.485,4.729-9.216,3.193c-3.731-1.536-5.653-5.459-4.293-8.761c1.359-3.299,5.485-4.729,9.216-3.191
						C58.582,49.948,60.504,53.87,59.143,57.17z"/>
				</g>
			</g>
		</g>
		<g>
			<g>
				<g>
					<path fill="#DBC55E" d="M106.358,70.937c0.921,3.095-2.382,7.074-6.259,6.008c-3.416-0.938-6.868-2.469-6.558-5.682
						c0.56-5.792,2.72-5.922,6.258-6.012C103.34,65.163,105.4,67.713,106.358,70.937z"/>
				</g>
			</g>
		</g>
		<g>
			<g>
				<g>
					<path fill="#E84849" d="M105.288,70.101c1.197,2.461-1.019,6.25-4.41,5.894c-2.987-0.313-6.09-1.115-6.273-3.851
						c-0.334-4.923,1.457-5.33,4.408-5.895C101.961,65.685,104.04,67.534,105.288,70.101z"/>
				</g>
			</g>
		</g>
		<g>
			<g>
				<g>
					<path fill="#DBC55E" d="M100.154,87.455c0.132,3.226-4.048,6.272-7.545,4.286c-3.08-1.75-6.051-4.079-4.959-7.12
						c1.963-5.474,4.091-5.069,7.543-4.286C98.646,81.118,100.017,84.097,100.154,87.455z"/>
				</g>
			</g>
		</g>
		<g>
			<g>
				<g>
					<path fill="#E79E2D" d="M99.32,86.382c0.558,2.684-2.521,5.811-5.724,4.629c-2.82-1.037-5.631-2.576-5.137-5.273
						c0.888-4.854,2.723-4.807,5.724-4.629C97.181,81.286,98.741,83.589,99.32,86.382z"/>
				</g>
			</g>
		</g>
		<g>
			<g>
				<g>
					<path fill="#DBC55E" d="M83.801,99.833c-1.824,2.665-6.994,2.605-8.61-1.074c-1.422-3.244-2.412-6.889,0.28-8.674
						c4.848-3.215,6.309-1.619,8.609,1.074C86.381,93.851,85.697,97.056,83.801,99.833z"/>
				</g>
			</g>
		</g>
		<g>
			<g>
				<g>
					<path fill="#DAC425" d="M83.773,98.472c-1.157,2.484-5.495,3.15-7.354,0.291c-1.641-2.517-2.974-5.434-0.965-7.299
						c3.612-3.359,5.057-2.227,7.354-0.291C85.105,93.108,84.979,95.888,83.773,98.472z"/>
				</g>
			</g>
		</g>
		<g>
			<g>
				<g>
					<path fill="#DBC55E" d="M65.705,100.058c-2.346,2.221-7.388,1.073-8.189-2.863c-0.707-3.473-0.906-7.243,2.103-8.42
						c5.416-2.121,6.508-0.25,8.188,2.865C69.488,94.757,68.145,97.747,65.705,100.058z"/>
				</g>
			</g>
		</g>
		<g>
			<g>
				<g>
					<path fill="#6CC077" d="M65.965,98.724c-1.656,2.184-6.036,1.922-7.252-1.267c-1.072-2.806-1.76-5.937,0.598-7.339
						c4.238-2.521,5.412-1.109,7.25,1.27C68.397,93.763,67.688,96.452,65.965,98.724z"/>
				</g>
			</g>
		</g>
	</g>
	<g>
		<g>
			<path fill="#276D69" d="M73.602,58.487c6.648-5.551,7.09-2.24,9.062-0.268c1.938,1.935,5.1,2.369-0.267,9.062
				c-5.341,6.665-20.664,11.87-20.664,11.87S67.054,63.957,73.602,58.487z"/>
		</g>
		<g>
			<path fill="#355957" d="M82.665,58.22c1.938,1.936,5.1,2.369-0.267,9.062c-5.341,6.664-20.664,11.869-20.664,11.869L82.665,58.22
				z"/>
		</g>
		<g>
			<g>
				<g>
					<path fill="#E79E2D" d="M79.648,55.069c-0.869,0.868,4.813,6.79,5.804,5.803l33.076-28.096l0.504-0.44
						c-0.006-0.008-0.013-0.016-0.019-0.023c-0.118,0.107-0.226,0.207-0.308,0.289L85.478,60.845
						c-0.497,0.498-2.166-0.734-3.603-2.199c0,0,23.986-23.988,32.115-32.115c-1.798-1.83-3.707-3.546-5.714-5.146l-0.534,0.607
						L79.648,55.069z"/>
				</g>
			</g>
			<g>
				<g>
					<path fill="#D68A28" d="M81.875,58.646c1.437,1.465,3.104,2.697,3.603,2.199l33.229-28.243
						c0.082-0.082,0.188-0.182,0.308-0.289c-1.56-2.028-3.233-3.96-5.022-5.782C105.862,34.657,81.875,58.646,81.875,58.646z"/>
				</g>
			</g>
		</g>
		<g>
			<path fill="#CDCCCB" d="M85.438,60.885l26.779-22.545L102.18,28.302L79.636,55.083C78.811,55.905,84.499,61.822,85.438,60.885z"
				/>
		</g>
		<g>
			<path fill="#B1B1B2" d="M85.438,60.885l26.779-22.545l-5.023-5.022c0,0-25.518,25.126-25.318,25.326
				C83.327,60.095,84.967,61.354,85.438,60.885z"/>
		</g>
		<g>
			<path fill="#BFBEBE" d="M90.729,55.793l19.438-15.741l-9.375-10.094L84.463,49.479C83.834,50.104,90.015,56.506,90.729,55.793z"
				/>
		</g>
		<g>
			<path fill="#AAAAAA" d="M85.438,60.885l25.111-21.14l-4.904-4.904c0,0-23.916,23.656-23.77,23.803
				C83.327,60.095,84.967,61.354,85.438,60.885z"/>
		</g>
	</g>
</g>
</svg>
