<?xml version="1.0" encoding="utf-8"?>
<!-- Generator: Adobe Illustrator 16.0.0, SVG Export Plug-In . SVG Version: 6.00 Build 0)  -->
<!DOCTYPE svg PUBLIC "-//W3C//DTD SVG 1.1//EN" "http://www.w3.org/Graphics/SVG/1.1/DTD/svg11.dtd">
<svg version="1.1" id="Layer_3" xmlns="http://www.w3.org/2000/svg" xmlns:xlink="http://www.w3.org/1999/xlink" x="0px" y="0px"
	 width="1200px" height="115.378px" viewBox="0 0 1200 115.378" enable-background="new 0 0 1200 115.378" xml:space="preserve">
<g>
	<polyline fill="#97BCE9" points="546.278,65.915 531.562,60.504 524,47.815 509.75,42.628 505.312,38.503 478.083,35.67 
		463.916,21.878 440.812,11.065 429.75,20.44 423.125,19.034 391.812,35.664 383.75,33.003 374.25,42.503 386.333,63.377 
		546.278,65.915 	"/>
	<g>
		<polygon fill="#E5E8ED" points="386.708,46.378 392.75,41.462 397.75,42.753 394,43.92 395.958,46.378 		"/>
		<polygon fill="#E5E8ED" points="449.261,30.534 448.422,34.124 450.336,37.459 449.751,45.544 447.292,39.128 440,33.795 
			440,37.378 426.583,36.129 426.516,38.021 431.375,45.54 427.917,46.982 427.823,49.795 424,46.836 424,43.378 420.812,39.878 
			411.812,42.19 421.688,31.628 422.688,19.94 425.562,23.003 437.75,23.44 446.625,30.44 		"/>
		<polygon fill="#E5E8ED" points="452.333,18.128 450.333,18.795 448.833,22.461 446,21.961 447.083,19.128 442.167,12.378 
			449,17.045 		"/>
		<polygon fill="#E5E8ED" points="522.031,60.815 518,58.878 518,55.378 508,53.659 506.438,50.378 495,50.378 509.062,57.753 
			511.125,55.94 515.312,61.19 		"/>
	</g>
	<g>
		<polygon fill="#6A91C0" points="423.125,19.18 391.812,35.737 398.167,38.378 411,38.378 418.625,34.618 422,32.19 422,28.523 
			423.667,26.357 		"/>
		<polygon fill="#6A91C0" points="617.438,115.378 585.094,79.45 541.484,64.362 530.617,64.745 528.125,62.378 515,62.378 
			487.75,48.575 473.062,45.237 452,30.273 452,45.523 447.5,49.773 446.625,42.898 443.125,39.398 432.25,38.773 431.375,41.523 
			437.75,52.773 431.375,49.148 428.25,52.023 423.5,49.398 421.75,43.398 411.75,44.898 406.875,52.398 403,53.023 403,49.523 
			394.125,53.523 387.75,52.523 390,49.898 387.75,48.273 379.375,47.898 384.375,41.7 381.375,37.378 387,37.378 383.75,33.075 
			334.188,51.477 258.667,115.378 		"/>
		<polygon fill="#6A91C0" points="440.812,11.211 445.875,25.023 429.75,20.586 		"/>
		<polyline fill="#6A91C0" points="502,40.378 502,47.523 520.167,54.983 521.001,50.191 524.792,57.566 531.959,60.649 
			524.917,46.702 		"/>
	</g>
</g>
</svg>
