<?xml version="1.0" encoding="utf-8"?>
<!-- Generator: Adobe Illustrator 16.0.0, SVG Export Plug-In . SVG Version: 6.00 Build 0)  -->
<!DOCTYPE svg PUBLIC "-//W3C//DTD SVG 1.1//EN" "http://www.w3.org/Graphics/SVG/1.1/DTD/svg11.dtd">
<svg version="1.1" id="Layer_3" xmlns="http://www.w3.org/2000/svg" xmlns:xlink="http://www.w3.org/1999/xlink" x="0px" y="0px"
	 width="1200px" height="115.378px" viewBox="0 0 1200 115.378" enable-background="new 0 0 1200 115.378" xml:space="preserve">
<g>
	<polygon fill="#6A91C0" points="933.333,67.045 927.164,69.544 903.812,67.94 890.688,45.69 810.126,10.94 803.784,21.097 
		797.422,20.711 792.428,27.545 785.021,26.211 778.042,40.628 761.584,52.378 752.167,45.878 697.603,92.706 696.219,93.541 
		618.419,115.378 660,115.378 709,115.378 980,115.378 	"/>
	<polygon fill="#AFC4DF" points="810.157,10.909 841.766,22.654 851.883,21.203 865.754,34.625 887.835,44.126 892.001,49.877 
		888.543,49.626 886.584,45.21 883.916,44.921 882.333,47.961 880,44.461 875.167,46.961 875.125,49.336 879.625,49.586 
		883.417,52.92 883.333,55.503 875.042,51.17 871.792,53.668 869.25,53.253 860.531,47.159 869.812,49.065 868.312,42.565 
		859,39.065 859,43.378 856.875,44.378 854.625,41.94 855.625,39.128 852.812,38.94 845.938,45.378 845.812,42.315 847.812,36.753 
		845.688,35.19 845.562,37.065 842,39.753 842,42.378 839.188,43.378 838.219,43.315 836,40.753 836,39.378 836.188,38.565 
		830.938,36.065 820.062,38.003 805.375,43.19 805.875,38.628 817.312,30.94 817.625,28.565 806.312,25.815 811.5,17.44 	"/>
	<polygon fill="#C5DDF5" points="810.157,10.909 847.752,24.794 827.835,25.21 840.002,37.46 837.252,36.96 818.168,24.877 
		816.918,25.544 812.918,24.71 811.835,22.46 813.002,17.71 	"/>
</g>
</svg>
