<?xml version="1.0" encoding="utf-8"?>
<!-- Generator: Adobe Illustrator 16.0.0, SVG Export Plug-In . SVG Version: 6.00 Build 0)  -->
<!DOCTYPE svg PUBLIC "-//W3C//DTD SVG 1.1//EN" "http://www.w3.org/Graphics/SVG/1.1/DTD/svg11.dtd">
<svg version="1.1" id="Layer_3" xmlns="http://www.w3.org/2000/svg" xmlns:xlink="http://www.w3.org/1999/xlink" x="0px" y="0px"
	 width="1200px" height="115.378px" viewBox="0 0 1200 115.378" enable-background="new 0 0 1200 115.378" xml:space="preserve">
<g>
	<polygon fill="#84A7D1" points="678.625,45.253 683.75,48.065 697.438,34.44 719.655,43.337 724.86,41.253 733.952,52.046 
		745.662,55.71 747.992,59.707 766.659,65.707 802.826,115.378 564,115.378 590.375,107.253 	"/>
	<polygon fill="#A9C1DD" points="678.758,45.253 679.566,50.128 696.096,54.253 703.235,51.628 707.75,61.378 704,61.378 
		704.542,57.42 683.062,53.003 684.812,58.065 689.625,59.878 699.562,72.44 713,77.94 707.188,69.128 707.438,63.815 
		716.938,64.378 719.812,69.378 727.75,64.815 732.438,56.565 740.625,60.378 749.375,67.128 745.662,55.71 733.952,52.046 
		724.86,41.253 726.625,47.628 697.438,34.44 703.625,46.378 683.875,48.128 	"/>
	<polygon fill="#E2E7F4" points="688.667,55.88 700.917,70.88 708.75,73.797 701,62.213 702.833,59.13 	"/>
	<polygon fill="#E2E7F4" points="705.167,40.795 705.031,44.144 712.25,58.628 716.667,52.711 723.583,54.795 724.688,53.671 
		717.25,47.545 712.124,47.463 	"/>
</g>
</svg>
