<svg xmlns="http://www.w3.org/2000/svg" width="136.833" height="136.834" viewBox="0 0 136.833 136.834"><circle fill="#42526C" cx="69" cy="70.692" r="63.054"/><path fill="#DFCC6B" d="M92.93 54.144c-7.438-.81-9.064 1.69-15.877-.717-4.534-1.604-.865-14.41-11.4-15.72C49.275 35.67 37.663 44.16 33.6 62.104c-4.784 21.115 8.64 42.15 29.978 46.984 21.34 4.834 42.518-8.358 47.3-29.478 3.318-14.64-3.855-23.934-17.948-25.466zm-32.935 4.162c-1.358 3.3-5.485 4.73-9.216 3.193-3.732-1.538-5.654-5.458-4.295-8.76 1.36-3.3 5.486-4.73 9.217-3.192 3.732 1.537 5.654 5.458 4.293 8.758z"/><path fill="#EEDD7A" d="M92.08 53.007c-7.44-.81-9.067 1.69-15.878-.717-4.535-1.603-.865-14.408-11.402-15.72-16.378-2.037-27.988 6.454-32.053 24.4-4.784 21.112 8.64 42.147 29.98 46.982 21.34 4.834 42.518-8.36 47.3-29.477 3.318-14.64-3.857-23.937-17.948-25.468zM59.142 57.17c-1.358 3.3-5.485 4.73-9.216 3.193-3.73-1.536-5.653-5.46-4.293-8.76 1.36-3.3 5.485-4.73 9.216-3.192 3.732 1.538 5.654 5.46 4.293 8.76z"/><path fill="#DBC55E" d="M54.85 48.41c-3.73-1.536-7.856-.106-9.216 3.192-1.36 3.302.562 7.225 4.293 8.76 3.73 1.537 7.857.106 9.216-3.192 1.36-3.3-.56-7.222-4.293-8.76zm2.986 8.223c-1.096 2.66-4.424 3.813-7.434 2.573-3.007-1.238-4.558-4.4-3.46-7.062 1.096-2.662 4.423-3.815 7.43-2.577 3.01 1.242 4.56 4.404 3.464 7.066z"/><path fill="#DBC55E" d="M55.702 49.548c-3.73-1.538-7.857-.106-9.217 3.19-1.36 3.304.563 7.224 4.294 8.76 3.73 1.54 7.856.108 9.215-3.192 1.36-3.3-.56-7.22-4.293-8.758zm2.986 8.218c-1.096 2.66-4.423 3.815-7.433 2.577-3.008-1.24-4.558-4.402-3.46-7.062 1.096-2.66 4.422-3.815 7.43-2.575 3.01 1.237 4.558 4.4 3.463 7.06z"/><path fill="#F1E089" d="M76.202 52.29c-4.535-1.603.572-13.123-11.402-15.72-16.13-3.497-27.988 6.454-32.053 24.4-4.093 18.065 5.144 36.07 21.26 43.922 2.722 1.326 29.005-50.194 22.195-52.602zm-17.06 4.88c-1.357 3.3-5.484 4.73-9.215 3.193-3.73-1.536-5.653-5.46-4.293-8.76 1.36-3.3 5.485-4.73 9.216-3.192 3.732 1.538 5.654 5.46 4.293 8.76z"/><path fill="#DBC55E" d="M106.358 70.937c.92 3.095-2.382 7.074-6.26 6.008-3.415-.938-6.867-2.47-6.557-5.682.56-5.792 2.72-5.922 6.26-6.012 3.54-.087 5.6 2.463 6.558 5.687z"/><path fill="#E84849" d="M105.288 70.1c1.197 2.462-1.02 6.25-4.41 5.895-2.987-.313-6.09-1.115-6.273-3.85-.334-4.924 1.457-5.33 4.408-5.896 2.948-.565 5.027 1.284 6.275 3.85z"/><path fill="#DBC55E" d="M100.154 87.455c.132 3.226-4.048 6.272-7.545 4.286-3.08-1.75-6.052-4.078-4.96-7.12 1.963-5.473 4.09-5.068 7.543-4.285 3.453.783 4.824 3.762 4.96 7.12z"/><path fill="#E79E2D" d="M99.32 86.382c.558 2.684-2.52 5.81-5.724 4.63-2.82-1.038-5.63-2.577-5.137-5.274.887-4.854 2.722-4.807 5.723-4.63 2.998.178 4.558 2.48 5.137 5.274z"/><g><path fill="#DBC55E" d="M83.8 99.833c-1.823 2.665-6.993 2.605-8.61-1.074-1.42-3.245-2.41-6.89.28-8.675 4.85-3.215 6.31-1.62 8.61 1.074 2.3 2.69 1.617 5.896-.28 8.673z"/></g><g><path fill="#DAC425" d="M83.773 98.472c-1.157 2.484-5.495 3.15-7.354.29-1.642-2.516-2.975-5.433-.966-7.298 3.612-3.36 5.057-2.227 7.354-.29 2.297 1.934 2.17 4.714.965 7.298z"/></g><g><path fill="#DBC55E" d="M65.705 100.058c-2.346 2.22-7.388 1.073-8.19-2.863-.706-3.473-.905-7.243 2.104-8.42 5.415-2.12 6.507-.25 8.187 2.865 1.68 3.117.338 6.107-2.102 8.418z"/></g><g><path fill="#6CC077" d="M65.965 98.724c-1.656 2.184-6.036 1.922-7.252-1.267-1.072-2.806-1.76-5.937.598-7.34 4.24-2.52 5.413-1.108 7.25 1.27 1.837 2.376 1.128 5.065-.595 7.337z"/></g><g><path fill="#276D69" d="M73.602 58.487c6.648-5.55 7.09-2.24 9.062-.268 1.938 1.934 5.1 2.368-.267 9.06-5.34 6.666-20.664 11.87-20.664 11.87s5.32-15.193 11.87-20.663z"/><path fill="#355957" d="M82.665 58.22c1.938 1.936 5.1 2.37-.267 9.062-5.34 6.664-20.664 11.87-20.664 11.87l20.93-20.932z"/><path fill="#E79E2D" d="M79.648 55.07c-.87.867 4.813 6.79 5.804 5.802l33.076-28.096.504-.44-.02-.023a9.234 9.234 0 0 0-.307.29L85.478 60.844c-.497.498-2.166-.734-3.603-2.2 0 0 23.986-23.987 32.115-32.114a63.482 63.482 0 0 0-5.714-5.145l-.534.607L79.648 55.07z"/><path fill="#D68A28" d="M81.875 58.646c1.437 1.465 3.104 2.697 3.603 2.2l33.23-28.244c.08-.082.187-.182.307-.29a63.54 63.54 0 0 0-5.022-5.78c-8.13 8.125-32.118 32.114-32.118 32.114z"/><path fill="#CDCCCB" d="M85.438 60.885l26.78-22.545-10.038-10.038-22.544 26.78c-.825.823 4.863 6.74 5.802 5.803z"/><path fill="#B1B1B2" d="M85.438 60.885l26.78-22.545-5.024-5.022S81.676 58.444 81.876 58.644c1.45 1.45 3.09 2.71 3.562 2.24z"/><path fill="#BFBEBE" d="M90.73 55.793l19.437-15.74-9.375-10.095-16.33 19.52c-.628.626 5.553 7.028 6.267 6.315z"/><g><path fill="#AAA" d="M85.438 60.885l25.11-21.14-4.903-4.904S81.73 58.498 81.875 58.645c1.452 1.45 3.092 2.71 3.563 2.24z"/></g></g></svg>