<svg xmlns="http://www.w3.org/2000/svg" width="136.833" height="136.834" viewBox="0 0 136.833 136.834"><circle fill="#42526C" cx="68.417" cy="68.416" r="63.333"/><path fill="#F2DE62" d="M109.166 107.3l-6.305 5.683-4.208-4.668 6.304-5.684z"/><path fill="#F0DF8E" d="M104.97 108.12l-2.166 4.934-33.843 5.405-4.616-28.29-.667-4.087 40.99-6.544.667 4.086 3.87 23.698z"/><g fill="#988534"><path d="M101.407 89.25L69.42 94.356l-.324-2.025 31.987-5.108zM102.332 94.303l-31.99 5.108-.322-2.022 31.988-5.108zM103.182 99.677l-31.99 5.108-.322-2.023 31.988-5.11zM89.666 107.177l-17.633 2.817-.324-2.025 17.632-2.82z"/></g><g><path fill="#F2DE62" d="M57.948 80.622l-6.826 5.048-3.74-5.055 6.827-5.048z"/><path fill="#F0DF8E" d="M53.69 81.026l-2.633 4.702-34.207 2.1-2.124-32.734 41.432-2.546 1.822 28.094z"/><g fill="#988534"><path d="M51.977 61.89l-32.33 1.99-.125-2.046 32.33-1.99zM52.404 67.013l-32.33 1.99-.125-2.047 32.328-1.988zM52.727 72.445l-32.33 1.99-.126-2.046L52.6 70.4zM38.55 78.602L20.725 79.7l-.126-2.046 17.824-1.097z"/></g></g><g><path fill="#F2DE62" d="M106.79 54.093l-7.37 4.214-3.12-5.458 7.368-4.215z"/><path fill="#F0DF8E" d="M102.513 53.996l-3.167 4.36-34.216-1.92 1.722-32.756 41.445 2.322-1.48 28.115z"/><g fill="#988534"><path d="M103.046 34.79l-32.338-1.81.115-2.046 32.338 1.81zM102.877 39.925l-32.338-1.81.114-2.045 32.338 1.81zM102.562 45.36l-32.34-1.81.115-2.047 32.34 1.81zM87.755 49.822l-17.827-1 .114-2.045 17.828.998z"/></g></g></svg>