<svg xmlns="http://www.w3.org/2000/svg" width="136.914" height="136.914" viewBox="0 0 136.914 136.914"><circle fill="#42526C" cx="68.457" cy="68.458" r="63.333"/><path fill="#F2F2F2" d="M115.66 47.202c0-5.997-4.863-10.86-10.86-10.86H31.946c-5.997 0-10.86 4.863-10.86 10.86v45.175c0 5.996 4.863 10.86 10.86 10.86H104.8c5.997 0 10.86-4.864 10.86-10.86V47.202z"/><path fill="#D1D3D3" d="M115.587 45.992c-.603-5.427-5.2-9.65-10.79-9.65h-72.85c-5.997 0-10.86 4.863-10.86 10.86v2.196h94.5v-3.406z"/><circle fill="#E84849" cx="29.753" cy="42.672" r="2.375"/><circle fill="#EFC849" cx="38.753" cy="42.672" r="2.375"/><circle fill="#37B34C" cx="47.753" cy="42.672" r="2.375"/><path fill="none" stroke="#969696" stroke-width="2" stroke-miterlimit="10" d="M27.378 59.707h81.33M27.378 65.707h81.33M27.378 71.707h81.33M27.378 77.707h81.33M27.378 83.457h81.33M27.378 89.457h41.08"/></svg>