<?xml version="1.0" encoding="utf-8"?>
<!-- Generator: Adobe Illustrator 16.0.0, SVG Export Plug-In . SVG Version: 6.00 Build 0)  -->
<!DOCTYPE svg PUBLIC "-//W3C//DTD SVG 1.1//EN" "http://www.w3.org/Graphics/SVG/1.1/DTD/svg11.dtd">
<svg version="1.1" id="Layer_3" xmlns="http://www.w3.org/2000/svg" xmlns:xlink="http://www.w3.org/1999/xlink" x="0px" y="0px"
	 width="1200px" height="115.378px" viewBox="0 0 1200 115.378" enable-background="new 0 0 1200 115.378" xml:space="preserve">
<g>
	<polygon fill="#557EAA" points="890.313,85.836 955.141,40.628 961.344,42.794 990.197,0 1005.103,8 1010.055,6.375 
		1022.84,20.879 1039.23,22.503 1083.626,1.315 1093.188,6.003 1107.875,4.753 1152.5,28.253 1165.25,20.784 1200,48.878 
		1200,115.378 693,115.378 	"/>
	<polygon fill="#6995BC" points="955.141,40.628 961.344,42.794 990.197,0 1005.103,8 1010.055,6.375 1022,25.815 1037,26.847 
		1033.625,30.503 1019.781,32.097 1014.781,36.597 1008.781,36.253 1008.719,33.784 1015.844,30.753 1014.406,27.628 
		999.438,30.753 989.781,26.909 981,36.034 990.312,43.909 960.333,65.712 901.129,78.293 	"/>
	<polyline fill="#A1BEE0" points="990.197,0 1006.75,22.628 1005.103,8 990.197,0 	"/>
	<polyline fill="#A0BEE0" points="1010.055,6.375 1022,25.815 1037,26.847 1033.625,30.503 1019.781,32.097 1014.781,36.597 
		1008.781,36.253 1008.719,33.784 1015.844,30.753 1014.406,27.628 999.438,30.753 989.781,26.909 981,36.034 990.312,43.909 
		998.375,36.347 1021.219,43.034 1025.688,38.597 1043.656,38.315 1050.812,33.784 1076.125,46.878 1108.188,37.878 
		1103.969,33.722 1077,39.378 1098.125,25.69 1090.5,27.94 1086.875,26.315 1077.188,30.878 1082.062,21.034 1079.875,18.222 
		1084,15.19 1086.344,5.409 1093.188,6.003 1083.626,1.315 1039.23,22.503 1022.84,20.879 1010.055,6.375 	"/>
	<polygon fill="#A1BEE0" points="1111.334,36.462 1124.293,34.046 1122.604,30.587 1112,23.545 1112,29.378 1109.418,34.795 	"/>
	<polyline fill="#C5DDF5" points="1125.305,13.932 1132.958,20.045 1114.375,17.879 1114.208,14.879 1121.562,11.961 
		1107.875,4.753 1105.167,17.92 1111.917,21.67 1116.542,19.67 1131.792,27.17 1136.792,25.587 1139.125,29.462 1152.209,29.129 
		1152.5,28.253 1125.305,13.932 	"/>
	<polygon fill="#C5DDF5" points="1022.833,35.045 1063.667,22.128 1074.417,27.045 1074.344,30.081 1079.391,34.503 
		1074.958,37.586 1053.876,32.752 	"/>
	<polygon fill="#C6DFF8" points="1165.25,20.784 1186.961,38.337 1177.375,50.628 1175.125,43.628 1159.625,52.753 1167.375,43.253 
		1169,38.003 	"/>
</g>
</svg>
