<?xml version="1.0" encoding="utf-8"?>
<!-- Generator: Adobe Illustrator 16.0.0, SVG Export Plug-In . SVG Version: 6.00 Build 0)  -->
<!DOCTYPE svg PUBLIC "-//W3C//DTD SVG 1.1//EN" "http://www.w3.org/Graphics/SVG/1.1/DTD/svg11.dtd">
<svg version="1.1" id="Layer_3" xmlns="http://www.w3.org/2000/svg" xmlns:xlink="http://www.w3.org/1999/xlink" x="0px" y="0px"
	 viewBox="0 0 1200 115.378" enable-background="new 0 0 1200 115.378" xml:space="preserve">
<g>
	<polygon fill="#C3D0E0" points="594.084,59.545 561.209,72.825 491.5,115.378 736,115.378 663.831,65.712 635.664,57.379
		629.832,62.545 625.166,60.649 613.75,69.378 	"/>
	<polygon fill="#E5E8ED" points="600,64.378 600,71.378 595.375,73.878 596.75,77.378 603.625,78.003 600,82.378 592,82.378
		594.5,79.253 592,71.753 596.75,70.753 595.625,67.503 	"/>
	<polygon fill="#E5E8ED" points="651.5,64.378 624,72.825 619.25,69.628 615,72.825 615.875,76.128 607,83.628 623.625,78.253
		634.125,82.378 638.312,75.128 	"/>
</g>
</svg>
