<?xml version="1.0" encoding="utf-8"?>
<!-- Generator: Adobe Illustrator 16.0.0, SVG Export Plug-In . SVG Version: 6.00 Build 0)  -->
<!DOCTYPE svg PUBLIC "-//W3C//DTD SVG 1.1//EN" "http://www.w3.org/Graphics/SVG/1.1/DTD/svg11.dtd">
<svg version="1.1" id="Layer_3" xmlns="http://www.w3.org/2000/svg" xmlns:xlink="http://www.w3.org/1999/xlink" x="0px" y="0px"
	 width="1200px" height="115.378px" viewBox="0 0 1200 115.378" enable-background="new 0 0 1200 115.378" xml:space="preserve">
<g>
	<polygon fill="#AEC4DD" points="894.5,38.753 851.375,69.878 842.335,86.378 782.335,115.378 1052,115.378 1117,115.378 
		1042.25,94.628 1034.25,86.128 968.75,57.378 966.583,52.795 923.833,31.045 914.75,38.63 907.083,33.63 897.833,41.713 	"/>
	<polygon fill="#E5ECF4" points="901,47.712 897.917,52.046 898.709,54.212 889.771,58.378 885.012,74.545 893.84,72.045 
		895.005,78.212 904.003,73.379 923.169,83.712 936.335,69.879 934.335,66.545 908.002,56.379 908.25,54.212 901,53.212 	"/>
	<polygon fill="#8AB0DD" points="923.833,31.045 908.75,43.795 909.031,46.347 917,47.128 908.75,48.128 907.125,51.128 908,53.003 
		920.583,56.212 925.125,53.462 924.917,57.879 934.332,60.212 951.082,56.794 949.082,46.461 941.249,47.711 939.332,46.377 
		943.999,42.961 928.666,40.544 	"/>
</g>
</svg>
