<?xml version="1.0" encoding="utf-8"?>
<!-- Generator: Adobe Illustrator 16.0.0, SVG Export Plug-In . SVG Version: 6.00 Build 0)  -->
<!DOCTYPE svg PUBLIC "-//W3C//DTD SVG 1.1//EN" "http://www.w3.org/Graphics/SVG/1.1/DTD/svg11.dtd">
<svg version="1.1" id="Layer_1" xmlns="http://www.w3.org/2000/svg" xmlns:xlink="http://www.w3.org/1999/xlink" x="0px" y="0px"
	 width="154.615px" height="52.167px" viewBox="0 0 154.615 52.167" enable-background="new 0 0 154.615 52.167"
	 xml:space="preserve">
<rect x="-6.612" y="-1.089" fill="none" width="168.595" height="64.461"/>
<g enable-background="new    ">
	<path fill="#42526C" d="M0.188,0.134c4.17,5.396,8.318,10.778,12.444,16.15c4.125,5.372,8.272,10.756,12.444,16.151
		c4.17-5.395,8.318-10.779,12.444-16.151c4.125-5.372,8.273-10.755,12.444-16.15V49.91h-5.644V17.95
		c0.044-0.362,0.079-0.725,0.102-1.088c0.022-0.362,0.056-0.725,0.102-1.088c-2.992,4.443-6.166,8.761-9.52,12.954
		c-3.355,4.193-6.664,8.422-9.928,12.682c-3.038-3.988-6.075-7.955-9.112-11.9c-3.038-3.943-6.076-7.91-9.112-11.899l-1.224-1.836
		c0.044,0.363,0.079,0.726,0.102,1.088c0.022,0.363,0.057,0.726,0.102,1.088V49.91H0.188V0.134z"/>
	<path fill="#42526C" d="M97.293,2.311h5.644c-3.536,8.341-7.05,16.638-10.54,24.888c-3.491,8.25-7.004,16.547-10.54,24.887
		c-3.536-8.34-7.05-16.637-10.54-24.887c-3.491-8.25-7.004-16.547-10.54-24.888h5.644c2.493,5.894,4.964,11.729,7.412,17.51
		c2.448,5.78,4.918,11.617,7.413,17.509l0.611,2.244l0.611-2.244c2.493-5.893,4.965-11.729,7.412-17.509
		C92.329,14.04,94.799,8.204,97.293,2.311z"/>
	<path fill="#42526C" d="M154.547,2.311v49.775c-5.848-6.209-11.651-12.375-17.407-18.496c-5.758-6.119-11.561-12.284-17.408-18.496
		c-0.228-0.316-0.442-0.611-0.646-0.884c-0.204-0.271-0.419-0.566-0.646-0.884c0.044,0.363,0.078,0.726,0.102,1.088
		c0.022,0.363,0.057,0.726,0.103,1.088V49.91h-5.645V0.134c5.849,6.348,11.65,12.638,17.408,18.87
		c5.757,6.234,11.56,12.525,17.408,18.871c0.227,0.316,0.441,0.611,0.646,0.883c0.204,0.273,0.419,0.568,0.646,0.885
		c-0.046-0.361-0.08-0.725-0.103-1.088c-0.023-0.363-0.057-0.725-0.102-1.088V2.311H154.547z"/>
</g>
</svg>
