<?xml version="1.0" encoding="UTF-8"?>
<svg width="270px" height="23px" viewBox="0 0 270 23" version="1.1" xmlns="http://www.w3.org/2000/svg" xmlns:xlink="http://www.w3.org/1999/xlink">
    <!-- Generator: Sketch 46.2 (44496) - http://www.bohemiancoding.com/sketch -->
    <title>email-address</title>
    <desc>Created with Sketch.</desc>
    <defs></defs>
    <g id="Page-1" stroke="none" stroke-width="1" fill="none" fill-rule="evenodd">
        <path d="M18.0194303,20 L18.0194303,10.9482422 C18.0194303,9.60253233 17.7570631,8.62077132 17.2323209,8.00292969 C16.7075787,7.38508806 15.9035503,7.07617187 14.8202116,7.07617187 C13.406793,7.07617187 12.3615561,7.4654909 11.6844694,8.24414062 C11.0073827,9.02279035 10.6688444,10.2457599 10.6688444,11.9130859 L10.6688444,20 L9.38661782,20 L9.38661782,10.5673828 C9.38661782,8.23989722 8.32022223,7.07617187 6.18739907,7.07617187 C4.74012621,7.07617187 3.68642581,7.49722886 3.02626625,8.33935547 C2.3661067,9.18148208 2.03603188,10.5292876 2.03603188,12.3828125 L2.03603188,20 L0.779195942,20 L0.779195942,6.20019531 L1.82021157,6.20019531 L2.08681313,8.09179688 L2.162985,8.09179688 C2.54384628,7.40624657 3.08550753,6.87516464 3.787985,6.49853516 C4.49046248,6.12190567 5.26486879,5.93359375 6.11122719,5.93359375 C8.28636828,5.93359375 9.68283869,6.75031735 10.3006803,8.38378906 L10.3514616,8.38378906 C10.8000315,7.59667575 11.4030528,6.99153857 12.1605436,6.56835937 C12.9180344,6.14518018 13.7791911,5.93359375 14.7440397,5.93359375 C16.2505576,5.93359375 17.3804292,6.33560796 18.1336881,7.13964844 C18.8869471,7.94368892 19.2635709,9.22167093 19.2635709,10.9736328 L19.2635709,20 L18.0194303,20 Z M35.1454069,13.0810547 C35.1454069,15.332368 34.5995139,17.0906512 33.5077116,18.355957 C32.4159092,19.6212628 30.9094139,20.2539062 28.9881803,20.2539062 C27.7778878,20.2539062 26.7114922,19.961917 25.7889616,19.3779297 C24.8664309,18.7939424 24.1597323,17.9560601 23.6688444,16.8642578 C23.1779565,15.7724555 22.9325163,14.5114004 22.9325163,13.0810547 C22.9325163,10.8297413 23.4784092,9.07568988 24.5702116,7.81884766 C25.6620139,6.56200543 27.1600458,5.93359375 29.0643522,5.93359375 C30.960195,5.93359375 32.4476476,6.57046889 33.5267545,7.84423828 C34.6058615,9.11800767 35.1454069,10.8635957 35.1454069,13.0810547 Z M24.2528288,13.0810547 C24.2528288,14.9768975 24.669654,16.4558866 25.503317,17.5180664 C26.3369801,18.5802462 27.5155165,19.1113281 29.0389616,19.1113281 C30.5624067,19.1113281 31.7409431,18.5802462 32.5746061,17.5180664 C33.4082691,16.4558866 33.8250944,14.9768975 33.8250944,13.0810547 C33.8250944,11.1767483 33.4040374,9.69987504 32.5619108,8.65039062 C31.7197842,7.60090621 30.5370161,7.07617187 29.0135709,7.07617187 C27.4901258,7.07617187 26.3158212,7.59879035 25.4906217,8.64404297 C24.6654223,9.68929559 24.2528288,11.1682847 24.2528288,13.0810547 Z M44.4002897,5.93359375 C44.984277,5.93359375 45.6105728,5.99283795 46.2791959,6.11132812 L46.037985,7.31738281 C45.4624613,7.17350188 44.8657876,7.1015625 44.2479459,7.1015625 C43.0715078,7.1015625 42.1066737,7.60090646 41.3534147,8.59960938 C40.6001557,9.59831229 40.2235319,10.8593674 40.2235319,12.3828125 L40.2235319,20 L38.9666959,20 L38.9666959,6.20019531 L40.0331022,6.20019531 L40.1600553,8.68847656 L40.2489225,8.68847656 C40.8159826,7.67284648 41.4211198,6.95980023 42.0643522,6.54931641 C42.7075846,6.13883258 43.4862226,5.93359375 44.4002897,5.93359375 Z M52.7284147,19.1367188 C53.5239916,19.1367188 54.2179951,19.0690111 54.8104459,18.9335938 L54.8104459,19.9492188 C54.2010679,20.1523448 53.498601,20.2539062 52.7030241,20.2539062 C51.484268,20.2539062 50.5850257,19.9280632 50.0052702,19.2763672 C49.4255147,18.6246712 49.1356413,17.6005929 49.1356413,16.2041016 L49.1356413,7.29199219 L47.0916959,7.29199219 L47.0916959,6.55566406 L49.1356413,5.984375 L49.7704069,2.86132812 L50.4178678,2.86132812 L50.4178678,6.20019531 L54.4676725,6.20019531 L54.4676725,7.29199219 L50.4178678,7.29199219 L50.4178678,16.0263672 C50.4178678,17.0843152 50.6040639,17.867185 50.9764616,18.375 C51.3488593,18.882815 51.9328378,19.1367188 52.7284147,19.1367188 Z M63.3670866,20.2539062 C61.3612172,20.2539062 59.7975935,19.6360739 58.6761686,18.4003906 C57.5547437,17.1647074 56.9940397,15.4339304 56.9940397,13.2080078 C56.9940397,11.007476 57.5357009,9.24496105 58.6190397,7.92041016 C59.7023784,6.59585926 61.1623248,5.93359375 62.9989225,5.93359375 C64.6239306,5.93359375 65.9061444,6.50064537 66.8456022,7.63476562 C67.78506,8.76888588 68.2547819,10.3092351 68.2547819,12.2558594 L68.2547819,13.2714844 L58.3143522,13.2714844 C58.3312794,15.1673272 58.773495,16.6145783 59.6410123,17.6132812 C60.5085297,18.6119842 61.750542,19.1113281 63.3670866,19.1113281 C64.1541999,19.1113281 64.8460875,19.0563157 65.4427702,18.9462891 C66.0394528,18.8362625 66.7948164,18.5992857 67.7088834,18.2353516 L67.7088834,19.3779297 C66.9302337,19.716473 66.2108399,19.9471023 65.5506803,20.0698242 C64.8905208,20.1925462 64.1626635,20.2539062 63.3670866,20.2539062 Z M62.9989225,7.05078125 C61.6701398,7.05078125 60.6037442,7.48876515 59.7997038,8.36474609 C58.9956633,9.24072704 58.5259414,10.503898 58.3905241,12.1542969 L66.9217741,12.1542969 C66.9217741,10.5546795 66.5747723,9.30420373 65.8807584,8.40283203 C65.1867446,7.50146034 64.2261422,7.05078125 62.9989225,7.05078125 Z M81.6864225,20 L81.6864225,11.0498047 C81.6864225,9.66177691 81.3944332,8.65250966 80.8104459,8.02197266 C80.2264586,7.39143565 79.3208687,7.07617187 78.0936491,7.07617187 C76.4432502,7.07617187 75.2350917,7.49299713 74.4691373,8.32666016 C73.703183,9.16032318 73.3202116,10.5123604 73.3202116,12.3828125 L73.3202116,20 L72.0633756,20 L72.0633756,6.20019531 L73.1297819,6.20019531 L73.3709928,8.09179688 L73.4471647,8.09179688 C74.3443046,6.6529876 75.9396662,5.93359375 78.2332975,5.93359375 C81.3648236,5.93359375 82.9305631,7.61358997 82.9305631,10.9736328 L82.9305631,20 L81.6864225,20 Z M106.696188,10.7958984 C106.696188,12.7255956 106.313217,14.2744082 105.547262,15.4423828 C104.781308,16.6103574 103.742419,17.1943359 102.430563,17.1943359 C101.677304,17.1943359 101.065819,16.9658226 100.59609,16.5087891 C100.126362,16.0517555 99.8534151,15.4296914 99.7772428,14.6425781 L99.7264616,14.6425781 C99.3625275,15.4889365 98.8377931,16.1258117 98.1522428,16.5532227 C97.4666925,16.9806336 96.6668958,17.1943359 95.7528288,17.1943359 C94.5002183,17.1943359 93.5311525,16.7859741 92.8456022,15.9692383 C92.1600519,15.1525024 91.8172819,14.0078199 91.8172819,12.5351562 C91.8172819,10.8255123 92.3272052,9.42692601 93.347067,8.33935547 C94.3669289,7.25178493 95.6978075,6.70800781 97.3397428,6.70800781 C98.5077174,6.70800781 99.7179918,6.88150868 100.970602,7.22851562 L100.691305,13.1191406 L100.691305,13.5 C100.691305,14.3802127 100.839416,15.0424782 101.135641,15.4868164 C101.431867,15.9311546 101.922747,16.1533203 102.608298,16.1533203 C103.480047,16.1533203 104.193093,15.6603239 104.747458,14.6743164 C105.301822,13.6883089 105.579001,12.4039793 105.579001,10.8212891 C105.579001,9.17935377 105.244694,7.74056607 104.576071,6.50488281 C103.907448,5.26919955 102.953193,4.3191765 101.713278,3.65478516 C100.473363,2.99039381 99.0578497,2.65820312 97.4666959,2.65820312 C95.5200716,2.65820312 93.8041057,3.07926011 92.3187467,3.92138672 C90.8333877,4.76351333 89.690821,5.9547449 88.8910123,7.49511719 C88.0912037,9.03548947 87.6913053,10.804352 87.6913053,12.8017578 C87.6913053,15.5270319 88.398004,17.6323168 89.8114225,19.1176758 C91.224841,20.6030348 93.2306803,21.3457031 95.8290006,21.3457031 C96.6161139,21.3457031 97.4137948,21.269532 98.222067,21.1171875 C99.0303393,20.964843 100.009984,20.668622 101.161032,20.2285156 L101.161032,21.4853516 C99.4429243,22.1624383 97.6909887,22.5009766 95.9051725,22.5009766 C92.9513817,22.5009766 90.6493214,21.652515 88.9989225,19.9555664 C87.3485236,18.2586178 86.5233366,15.8994292 86.5233366,12.8779297 C86.5233366,10.7112522 86.9824791,8.76254121 87.900778,7.03173828 C88.8190768,5.30093536 90.1182175,3.95736155 91.7982389,3.00097656 C93.4782603,2.04459157 95.3761906,1.56640625 97.4920866,1.56640625 C99.3117571,1.56640625 100.92193,1.94303009 102.322653,2.69628906 C103.723376,3.44954804 104.802467,4.52652294 105.559958,5.92724609 C106.317448,7.32796924 106.696188,8.95083713 106.696188,10.7958984 Z M93.1248991,12.5097656 C93.1248991,13.7200581 93.3576441,14.6298798 93.8231413,15.2392578 C94.2886384,15.8486359 95.0249591,16.1533203 96.0321256,16.1533203 C98.1903395,16.1533203 99.3456014,14.6891422 99.4979459,11.7607422 L99.7010709,8.06640625 C99.0324478,7.83788948 98.2157242,7.72363281 97.2508756,7.72363281 C95.9898016,7.72363281 94.986882,8.15738499 94.2420866,9.02490234 C93.4972912,9.8924197 93.1248991,11.0540292 93.1248991,12.5097656 Z M120.064352,20 L120.064352,11.0498047 C120.064352,9.66177691 119.772363,8.65250966 119.188376,8.02197266 C118.604388,7.39143565 117.698798,7.07617187 116.471579,7.07617187 C114.82118,7.07617187 113.613021,7.49299713 112.847067,8.32666016 C112.081113,9.16032318 111.698141,10.5123604 111.698141,12.3828125 L111.698141,20 L110.441305,20 L110.441305,6.20019531 L111.507712,6.20019531 L111.748923,8.09179688 L111.825094,8.09179688 C112.722234,6.6529876 114.317596,5.93359375 116.611227,5.93359375 C119.742753,5.93359375 121.308493,7.61358997 121.308493,10.9736328 L121.308493,20 L120.064352,20 Z M137.190329,13.0810547 C137.190329,15.332368 136.644436,17.0906512 135.552633,18.355957 C134.460831,19.6212628 132.954336,20.2539062 131.033102,20.2539062 C129.82281,20.2539062 128.756414,19.961917 127.833883,19.3779297 C126.911353,18.7939424 126.204654,17.9560601 125.713766,16.8642578 C125.222878,15.7724555 124.977438,14.5114004 124.977438,13.0810547 C124.977438,10.8297413 125.523331,9.07568988 126.615133,7.81884766 C127.706936,6.56200543 129.204968,5.93359375 131.109274,5.93359375 C133.005117,5.93359375 134.492569,6.57046889 135.571676,7.84423828 C136.650783,9.11800767 137.190329,10.8635957 137.190329,13.0810547 Z M126.297751,13.0810547 C126.297751,14.9768975 126.714576,16.4558866 127.548239,17.5180664 C128.381902,18.5802462 129.560438,19.1113281 131.083883,19.1113281 C132.607329,19.1113281 133.785865,18.5802462 134.619528,17.5180664 C135.453191,16.4558866 135.870016,14.9768975 135.870016,13.0810547 C135.870016,11.1767483 135.448959,9.69987504 134.606833,8.65039062 C133.764706,7.60090621 132.581938,7.07617187 131.058493,7.07617187 C129.535048,7.07617187 128.360743,7.59879035 127.535544,8.64404297 C126.710344,9.68929559 126.297751,11.1682847 126.297751,13.0810547 Z M146.064352,5.93359375 C147.063055,5.93359375 147.926328,6.11555808 148.654196,6.47949219 C149.382064,6.8434263 150.03375,7.46549039 150.609274,8.34570312 L150.685446,8.34570312 C150.634664,7.27929154 150.609274,6.2340546 150.609274,5.20996094 L150.609274,0.24609375 L151.853415,0.24609375 L151.853415,20 L151.028219,20 L150.710837,17.8925781 L150.609274,17.8925781 C149.55979,19.4668047 148.053294,20.2539062 146.089743,20.2539062 C144.185436,20.2539062 142.729722,19.6614643 141.722555,18.4765625 C140.715389,17.2916607 140.211813,15.5651155 140.211813,13.296875 C140.211813,10.9101443 140.711157,9.08626933 141.70986,7.82519531 C142.708563,6.5641213 144.160046,5.93359375 146.064352,5.93359375 Z M146.064352,7.07617188 C144.557834,7.07617188 143.425847,7.60513794 142.668356,8.66308594 C141.910865,9.72103394 141.532126,11.2571514 141.532126,13.2714844 C141.532126,17.1816602 143.051316,19.1367188 146.089743,19.1367188 C147.647042,19.1367188 148.789609,18.6839238 149.517477,17.7783203 C150.245345,16.8727168 150.609274,15.3789167 150.609274,13.296875 L150.609274,13.0810547 C150.609274,10.9482315 150.251693,9.41422994 149.53652,8.47900391 C148.821347,7.54377788 147.66397,7.07617188 146.064352,7.07617188 Z M161.539938,5.93359375 C162.538641,5.93359375 163.401914,6.11555808 164.129782,6.47949219 C164.85765,6.8434263 165.509336,7.46549039 166.08486,8.34570312 L166.161032,8.34570312 C166.11025,7.27929154 166.08486,6.2340546 166.08486,5.20996094 L166.08486,0.24609375 L167.329001,0.24609375 L167.329001,20 L166.503805,20 L166.186423,17.8925781 L166.08486,17.8925781 C165.035376,19.4668047 163.52888,20.2539062 161.565329,20.2539062 C159.661022,20.2539062 158.205308,19.6614643 157.198141,18.4765625 C156.190975,17.2916607 155.687399,15.5651155 155.687399,13.296875 C155.687399,10.9101443 156.186743,9.08626933 157.185446,7.82519531 C158.184149,6.5641213 159.635632,5.93359375 161.539938,5.93359375 Z M161.539938,7.07617188 C160.03342,7.07617188 158.901433,7.60513794 158.143942,8.66308594 C157.386451,9.72103394 157.007712,11.2571514 157.007712,13.2714844 C157.007712,17.1816602 158.526902,19.1367188 161.565329,19.1367188 C163.122628,19.1367188 164.265195,18.6839238 164.993063,17.7783203 C165.720931,16.8727168 166.08486,15.3789167 166.08486,13.296875 L166.08486,13.0810547 C166.08486,10.9482315 165.727279,9.41422994 165.012106,8.47900391 C164.296933,7.54377788 163.139556,7.07617188 161.539938,7.07617188 Z M177.536032,20.2539062 C175.530162,20.2539062 173.966539,19.6360739 172.845114,18.4003906 C171.723689,17.1647074 171.162985,15.4339304 171.162985,13.2080078 C171.162985,11.007476 171.704646,9.24496105 172.787985,7.92041016 C173.871324,6.59585926 175.33127,5.93359375 177.167868,5.93359375 C178.792876,5.93359375 180.07509,6.50064537 181.014548,7.63476562 C181.954005,8.76888588 182.423727,10.3092351 182.423727,12.2558594 L182.423727,13.2714844 L172.483298,13.2714844 C172.500225,15.1673272 172.94244,16.6145783 173.809958,17.6132812 C174.677475,18.6119842 175.919487,19.1113281 177.536032,19.1113281 C178.323145,19.1113281 179.015033,19.0563157 179.611715,18.9462891 C180.208398,18.8362625 180.963762,18.5992857 181.877829,18.2353516 L181.877829,19.3779297 C181.099179,19.716473 180.379785,19.9471023 179.719626,20.0698242 C179.059466,20.1925462 178.331609,20.2539062 177.536032,20.2539062 Z M177.167868,7.05078125 C175.839085,7.05078125 174.77269,7.48876515 173.968649,8.36474609 C173.164609,9.24072704 172.694887,10.503898 172.559469,12.1542969 L181.090719,12.1542969 C181.090719,10.5546795 180.743718,9.30420373 180.049704,8.40283203 C179.35569,7.50146034 178.395087,7.05078125 177.167868,7.05078125 Z M187.489157,20 L186.232321,20 L186.232321,0.24609375 L187.489157,0.24609375 L187.489157,20 Z M200.489157,20 L200.171774,17.8164062 L200.070212,17.8164062 C199.376198,18.7050826 198.663151,19.3334943 197.931051,19.7016602 C197.198951,20.0698261 196.333563,20.2539062 195.33486,20.2539062 C193.980687,20.2539062 192.926986,19.9069045 192.173727,19.2128906 C191.420468,18.5188767 191.043844,17.5582744 191.043844,16.3310547 C191.043844,14.9853448 191.604548,13.9401079 192.725973,13.1953125 C193.847398,12.4505171 195.470266,12.0569664 197.594626,12.0146484 L200.222555,11.9384766 L200.222555,11.0244141 C200.222555,9.71255854 199.955956,8.72233407 199.422751,8.05371094 C198.889545,7.3850878 198.030504,7.05078125 196.845602,7.05078125 C195.567601,7.05078125 194.24307,7.40624645 192.871969,8.1171875 L192.402243,7.02539062 C193.917224,6.31444957 195.415256,5.95898438 196.896383,5.95898438 C198.411365,5.95898438 199.543352,6.35253513 200.29238,7.13964844 C201.041407,7.92676175 201.415915,9.15396302 201.415915,10.8212891 L201.415915,20 L200.489157,20 Z M195.411032,19.1113281 C196.883695,19.1113281 198.045305,18.6902711 198.895895,17.8481445 C199.746485,17.0060179 200.171774,15.835945 200.171774,14.3378906 L200.171774,12.9794922 L197.759665,13.0810547 C195.821504,13.1741541 194.439845,13.4767227 193.614645,13.9887695 C192.789446,14.5008164 192.376852,15.2984972 192.376852,16.3818359 C192.376852,17.2451215 192.641335,17.9158505 193.170309,18.394043 C193.699283,18.8722355 194.446183,19.1113281 195.411032,19.1113281 Z M215.507712,20 L215.507712,11.0498047 C215.507712,9.66177691 215.215722,8.65250966 214.631735,8.02197266 C214.047748,7.39143565 213.142158,7.07617187 211.914938,7.07617187 C210.264539,7.07617187 209.056381,7.49299713 208.290426,8.32666016 C207.524472,9.16032318 207.141501,10.5123604 207.141501,12.3828125 L207.141501,20 L205.884665,20 L205.884665,6.20019531 L206.951071,6.20019531 L207.192282,8.09179688 L207.268454,8.09179688 C208.165594,6.6529876 209.760955,5.93359375 212.054587,5.93359375 C215.186113,5.93359375 216.751852,7.61358997 216.751852,10.9736328 L216.751852,20 L215.507712,20 Z M226.273337,5.93359375 C227.272039,5.93359375 228.135312,6.11555808 228.86318,6.47949219 C229.591049,6.8434263 230.242735,7.46549039 230.818258,8.34570312 L230.89443,8.34570312 C230.843649,7.27929154 230.818258,6.2340546 230.818258,5.20996094 L230.818258,0.24609375 L232.062399,0.24609375 L232.062399,20 L231.237204,20 L230.919821,17.8925781 L230.818258,17.8925781 C229.768774,19.4668047 228.262279,20.2539062 226.298727,20.2539062 C224.394421,20.2539062 222.938706,19.6614643 221.93154,18.4765625 C220.924373,17.2916607 220.420798,15.5651155 220.420798,13.296875 C220.420798,10.9101443 220.920141,9.08626933 221.918844,7.82519531 C222.917547,6.5641213 224.36903,5.93359375 226.273337,5.93359375 Z M226.273337,7.07617188 C224.766819,7.07617188 223.634831,7.60513794 222.87734,8.66308594 C222.11985,9.72103394 221.74111,11.2571514 221.74111,13.2714844 C221.74111,17.1816602 223.260301,19.1367188 226.298727,19.1367188 C227.856027,19.1367188 228.998593,18.6839238 229.726462,17.7783203 C230.45433,16.8727168 230.818258,15.3789167 230.818258,13.296875 L230.818258,13.0810547 C230.818258,10.9482315 230.460677,9.41422994 229.745505,8.47900391 C229.030332,7.54377788 227.872954,7.07617188 226.273337,7.07617188 Z M236.442282,19.0097656 C236.442282,18.1803344 236.78082,17.765625 237.457907,17.765625 C238.151921,17.765625 238.498923,18.1803344 238.498923,19.0097656 C238.498923,19.8391969 238.151921,20.2539062 237.457907,20.2539062 C236.78082,20.2539062 236.442282,19.8391969 236.442282,19.0097656 Z M252.501852,20 L252.501852,11.0498047 C252.501852,9.66177691 252.209863,8.65250966 251.625876,8.02197266 C251.041888,7.39143565 250.136298,7.07617187 248.909079,7.07617187 C247.25868,7.07617187 246.050521,7.49299713 245.284567,8.32666016 C244.518613,9.16032318 244.135641,10.5123604 244.135641,12.3828125 L244.135641,20 L242.878805,20 L242.878805,6.20019531 L243.945212,6.20019531 L244.186423,8.09179688 L244.262594,8.09179688 C245.159734,6.6529876 246.755096,5.93359375 249.048727,5.93359375 C252.180253,5.93359375 253.745993,7.61358997 253.745993,10.9736328 L253.745993,20 L252.501852,20 Z M269.627829,13.0810547 C269.627829,15.332368 269.081936,17.0906512 267.990133,18.355957 C266.898331,19.6212628 265.391836,20.2539062 263.470602,20.2539062 C262.26031,20.2539062 261.193914,19.961917 260.271383,19.3779297 C259.348853,18.7939424 258.642154,17.9560601 258.151266,16.8642578 C257.660378,15.7724555 257.414938,14.5114004 257.414938,13.0810547 C257.414938,10.8297413 257.960831,9.07568988 259.052633,7.81884766 C260.144436,6.56200543 261.642468,5.93359375 263.546774,5.93359375 C265.442617,5.93359375 266.930069,6.57046889 268.009176,7.84423828 C269.088283,9.11800767 269.627829,10.8635957 269.627829,13.0810547 Z M258.735251,13.0810547 C258.735251,14.9768975 259.152076,16.4558866 259.985739,17.5180664 C260.819402,18.5802462 261.997938,19.1113281 263.521383,19.1113281 C265.044829,19.1113281 266.223365,18.5802462 267.057028,17.5180664 C267.890691,16.4558866 268.307516,14.9768975 268.307516,13.0810547 C268.307516,11.1767483 267.886459,9.69987504 267.044333,8.65039062 C266.202206,7.60090621 265.019438,7.07617187 263.495993,7.07617187 C261.972548,7.07617187 260.798243,7.59879035 259.973044,8.64404297 C259.147844,9.68929559 258.735251,11.1682847 258.735251,13.0810547 Z" id="email-address" fill="#FFFFFF"></path>
    </g>
</svg>