<svg xmlns="http://www.w3.org/2000/svg" width="1200" height="115.378" viewBox="0 0 1200 115.378"><path fill="#6A91C0" d="M933.333 67.045l-6.17 2.5-23.35-1.605-13.125-22.25-80.562-34.75-6.342 10.157-6.362-.386-4.994 6.835-7.407-1.334-6.978 14.418-16.458 11.75-9.417-6.5-54.564 46.828-1.384.835-77.8 21.838H980z"/><path fill="#AFC4DF" d="M810.157 10.91l31.61 11.744 10.116-1.45 13.87 13.42 22.082 9.502 4.166 5.75-3.457-.25-1.96-4.416-2.667-.29-1.583 3.04-2.333-3.5-4.833 2.5-.042 2.376 4.5.25 3.792 3.334-.084 2.583-8.29-4.333-3.25 2.498-2.543-.415-8.72-6.094 9.282 1.905-1.5-6.5-9.312-3.5v4.313l-2.125 1-2.25-2.438 1-2.812-2.813-.188-6.874 6.438-.126-3.063 2-5.562-2.124-1.563-.126 1.875L842 39.753v2.625l-2.812 1-.97-.063L836 40.753v-1.375l.188-.813-5.25-2.5-10.876 1.938-14.687 5.187.5-4.562 11.437-7.688.313-2.375-11.313-2.75 5.188-8.375z"/><path fill="#C5DDF5" d="M810.157 10.91l37.595 13.884-19.917.416 12.167 12.25-2.75-.5-19.084-12.083-1.25.667-4-.834-1.083-2.25 1.167-4.75z"/></svg>