<svg xmlns="http://www.w3.org/2000/svg" width="1200" height="115.378" viewBox="0 0 1200 115.378"><path fill="#97BCE9" d="M546.278 65.915l-14.716-5.41L524 47.814l-14.25-5.187-4.438-4.125-27.23-2.833-14.166-13.792-23.104-10.813-11.062 9.375-6.625-1.406-31.313 16.63-8.062-2.66-9.5 9.5 12.083 20.873 159.945 2.538"/><g fill="#E5E8ED"><path d="M386.708 46.378l6.042-4.916 5 1.29L394 43.92l1.958 2.458zM449.26 30.534l-.838 3.59 1.914 3.335-.585 8.084-2.458-6.416L440 33.795v3.583l-13.417-1.25-.067 1.893 4.86 7.52-3.46 1.442-.093 2.813-3.823-2.96V43.38l-3.188-3.5-9 2.312 9.876-10.562 1-11.688 2.874 3.063 12.188.437 8.875 7zM452.333 18.128l-2 .667-1.5 3.666-2.833-.5 1.083-2.832-4.916-6.75L449 17.045zM522.03 60.815L518 58.878v-3.5l-10-1.72-1.562-3.28H495l14.062 7.375 2.063-1.813 4.187 5.25z"/></g><g fill="#6A91C0"><path d="M423.125 19.18l-31.313 16.557 6.355 2.64H411l7.625-3.76L422 32.19v-3.667l1.667-2.166zM617.438 115.378L585.094 79.45l-43.61-15.088-10.867.383-2.492-2.367H515l-27.25-13.803-14.688-3.338L452 30.273v15.25l-4.5 4.25-.875-6.875-3.5-3.5-10.875-.625-.875 2.75 6.375 11.25-6.375-3.625-3.125 2.875-4.75-2.625-1.75-6-10 1.5-4.875 7.5-3.875.625v-3.5l-8.875 4-6.375-1 2.25-2.625-2.25-1.625-8.375-.375 5-6.198-3-4.322H387l-3.25-4.303-49.562 18.402-75.52 63.9zM440.812 11.21l5.063 13.813-16.125-4.437zM502 40.378v7.145l18.167 7.46.834-4.792 3.792 7.376 7.167 3.083-7.043-13.948"/></g></svg>