<svg xmlns="http://www.w3.org/2000/svg" width="1200" height="115.378" viewBox="0 0 1200 115.378"><path fill="#557EAA" d="M890.313 85.836l64.828-45.208 6.204 2.166L990.197 0l14.906 8 4.952-1.625 12.785 14.504 16.39 1.623 44.396-21.188 9.562 4.688 14.687-1.25 44.625 23.5 12.75-7.47L1200 48.88v66.5H693z"/><path fill="#6995BC" d="M955.14 40.628l6.204 2.166L990.197 0l14.906 8 4.952-1.625L1022 25.815l15 1.032-3.375 3.656-13.844 1.594-5 4.5-6-.344-.06-2.47 7.124-3.03-1.438-3.125-14.968 3.125-9.657-3.844-8.78 9.124 9.312 7.875-29.98 21.802-59.203 12.58z"/><path fill="#A1BEE0" d="M990.197 0l16.553 22.628L1005.103 8l-14.906-8"/><path fill="#A0BEE0" d="M1010.055 6.375L1022 25.815l15 1.032-3.375 3.656-13.844 1.594-5 4.5-6-.344-.06-2.47 7.124-3.03-1.438-3.125-14.968 3.125-9.657-3.844-8.78 9.124 9.312 7.875 8.063-7.563 22.844 6.687 4.468-4.437 17.968-.282 7.156-4.53 25.313 13.093 32.063-9-4.22-4.156L1077 39.378l21.125-13.688-7.625 2.25-3.625-1.625-9.687 4.563 4.874-9.844-2.187-2.812L1084 15.19l2.344-9.78 6.844.593-9.562-4.688-44.396 21.188-16.39-1.624-12.785-14.505"/><path fill="#A1BEE0" d="M1111.334 36.462l12.96-2.416-1.69-3.46-10.604-7.04v5.832l-2.582 5.417z"/><path fill="#C5DDF5" d="M1125.305 13.932l7.653 6.113-18.583-2.166-.167-3 7.354-2.92-13.687-7.207-2.708 13.167 6.75 3.75 4.625-2 15.25 7.5 5-1.583 2.333 3.875 13.084-.333.29-.877-27.195-14.32"/><path fill="#C5DDF5" d="M1022.833 35.045l40.834-12.917 10.75 4.917-.073 3.036 5.047 4.423-4.432 3.083-21.082-4.834z"/><path fill="#C6DFF8" d="M1165.25 20.784l21.71 17.553-9.585 12.29-2.25-7-15.5 9.126 7.75-9.5 1.625-5.25z"/></svg>