<svg xmlns="http://www.w3.org/2000/svg" width="1200" height="115.378" viewBox="0 0 1200 115.378"><path fill="#AEC4DD" d="M894.5 38.753l-43.125 31.125-9.04 16.5-60 29H1117l-74.75-20.75-8-8.5-65.5-28.75-2.167-4.583-42.75-21.75-9.083 7.585-7.667-5-9.25 8.083z"/><path fill="#E5ECF4" d="M901 47.712l-3.083 4.334.792 2.166-8.94 4.166-4.758 16.167 8.828-2.5 1.165 6.167 8.998-4.833L923.17 83.71l13.165-13.833-2-3.335-26.333-10.166.248-2.168-7.25-1z"/><path fill="#8AB0DD" d="M923.833 31.045l-15.083 12.75.28 2.552 7.97.78-8.25 1-1.625 3 .875 1.876 12.583 3.21 4.542-2.75-.208 4.416 9.415 2.332 16.75-3.418-2-10.333-7.833 1.25-1.918-1.333L944 42.96l-15.334-2.416z"/></svg>