<svg xmlns="http://www.w3.org/2000/svg" width="1200" height="115.378" viewBox="0 0 1200 115.378"><path fill="#84A7D1" d="M678.625 45.253l5.125 2.812 13.688-13.625 22.217 8.897 5.205-2.084 9.092 10.793 11.71 3.664 2.33 3.997 18.667 6 36.166 49.67H564l26.375-8.124z"/><path fill="#A9C1DD" d="M678.758 45.253l.808 4.875 16.53 4.125 7.14-2.625 4.514 9.75H704l.542-3.958-21.48-4.417 1.75 5.062 4.813 1.813 9.937 12.562L713 77.94l-5.812-8.812.25-5.313 9.5.563 2.874 5 7.938-4.563 4.688-8.25 8.187 3.813 8.75 6.75-3.713-11.418-11.71-3.664-9.092-10.793 1.765 6.375-29.187-13.188 6.187 11.938-19.75 1.75z"/><path fill="#E2E7F4" d="M688.667 55.88l12.25 15 7.833 2.917L701 62.213l1.833-3.083zM705.167 40.795l-.136 3.35 7.22 14.483 4.417-5.917 6.916 2.085 1.105-1.124-7.438-6.125-5.126-.082z"/></svg>