<svg xmlns="http://www.w3.org/2000/svg" width="154.615" height="52.167" viewBox="0 0 154.615 52.167"><path fill="none" d="M-6.612-1.09h168.595v64.462H-6.612z"/><g fill="#42526C"><path d="M.188.134a6857.59 6857.59 0 0 1 12.444 16.15 5974.543 5974.543 0 0 0 12.444 16.15c4.17-5.394 8.318-10.778 12.444-16.15A6185.717 6185.717 0 0 1 49.964.134V49.91H44.32V17.95c.044-.362.08-.725.102-1.088.022-.362.056-.725.102-1.088a195.98 195.98 0 0 1-9.52 12.954 765.512 765.512 0 0 0-9.928 12.682 2954.044 2954.044 0 0 0-9.112-11.9c-3.038-3.943-6.076-7.91-9.112-11.9l-1.224-1.835c.044.363.08.726.102 1.088.022.363.057.726.102 1.088v31.96H.188V.134zM97.293 2.31h5.644c-3.536 8.342-7.05 16.64-10.54 24.89-3.49 8.25-7.004 16.546-10.54 24.886-3.536-8.34-7.05-16.637-10.54-24.887-3.49-8.25-7.004-16.548-10.54-24.89h5.644c2.494 5.895 4.965 11.73 7.413 17.51l7.413 17.51.61 2.244.612-2.244c2.493-5.893 4.965-11.73 7.412-17.51 2.45-5.78 4.92-11.616 7.413-17.51zM154.547 2.31v49.776c-5.848-6.21-11.65-12.375-17.407-18.496-5.758-6.12-11.56-12.284-17.408-18.496a66.6 66.6 0 0 0-.646-.884c-.204-.27-.42-.566-.646-.884.044.363.078.726.102 1.088.022.363.057.726.103 1.088V49.91H113V.134c5.85 6.348 11.65 12.638 17.408 18.87a24268.84 24268.84 0 0 1 17.408 18.87c.227.317.44.612.646.884.204.273.42.568.646.885a17.25 17.25 0 0 1-.103-1.088 18.177 18.177 0 0 0-.102-1.088V2.31h5.644z"/></g></svg>